<?xml version="1.0" encoding="UTF-8" standalone="no"?>
<svg width="600px" height="601px" viewBox="0 0 600 601" version="1.1" xmlns="http://www.w3.org/2000/svg" xmlns:xlink="http://www.w3.org/1999/xlink">
    <!-- Generator: Sketch 39.1 (31720) - http://www.bohemiancoding.com/sketch -->
    <title>Group 2</title>
    <desc>Created with Sketch.</desc>
    <defs></defs>
    <g id="Page-1" stroke="none" stroke-width="1" fill="none" fill-rule="evenodd">
        <g id="Group-2">
            <g id="logo">
                <g id="Page-1" fill="#FFFFFF">
                    <g id="Fill-11-_x2B_-Fill-12-_x2B_-Fill-13" transform="translate(0.000000, 0.285714)">
                        <g id="Group">
                            <path d="M300,460.2 C211.6,460.2 139.9,388.5 139.9,300.1 C139.9,211.7 211.6,140 300,140 C388.4,140 460.1,211.7 460.1,300.1 C460.1,388.5 388.4,460.2 300,460.2 M300,0.1 C134.3,0.1 0,134.4 0,300.1 C0,465.8 134.3,600.1 300,600.1 C465.7,600.1 600,465.8 600,300.1 C600,134.4 465.7,0.1 300,0.1" id="Fill-11"></path>
                            <path d="M300,140 C211.6,140 139.9,211.7 139.9,300.1 C139.9,388.5 211.6,460.2 300,460.2 C388.4,460.2 460.1,388.5 460.1,300.1 C460.1,211.7 388.4,140 300,140" id="Fill-12"></path>
                        </g>
                    </g>
                </g>
                <g id="SITO_icon_color" transform="translate(107.000000, 60.000000)">
                    <g id="Use_for_height_of_.667in_x2F_48px_or_less">
                        <path d="M179.574523,427.43509 L129.391154,427.43509 C88.7019351,427.43509 56.1505602,394.909289 56.1505602,354.252038 L56.1505602,129.281914 C56.1505602,88.6246627 88.7019351,56.0988617 129.391154,56.0988617 L179.574523,56.0988617 L179.574523,0.533951658 L129.391154,0.533951658 C58.8631747,0.533951658 0.541961298,58.8093451 0.541961298,129.281914 L0.541961298,354.252038 C0.541961298,424.724607 58.8631747,483 129.391154,483 L179.574523,483 L179.574523,427.43509 L179.574523,427.43509 Z" id="Shape" fill="#AAB9BF"></path>
                        <path d="M256.884039,0.533951658 L210.769591,0.533951658 L210.769591,56.0988617 L256.884039,56.0988617 C297.573258,56.0988617 330.124633,88.6246627 330.124633,129.281914 L330.124633,354.252038 C330.124633,394.909289 297.573258,427.43509 256.884039,427.43509 L210.769591,427.43509 L210.769591,483 L256.884039,483 C327.412018,483 385.733231,424.724607 385.733231,354.252038 L385.733231,129.281914 C385.733231,58.8093451 327.412018,0.533951658 256.884039,0.533951658 L256.884039,0.533951658 Z" id="Shape" fill="#12C3F4"></path>
                    </g>
                </g>
            </g>
        </g>
    </g>
</svg>