<?xml version="1.0" encoding="UTF-8" standalone="no"?>
<svg width="134px" height="46px" viewBox="0 0 134 46" version="1.1" xmlns="http://www.w3.org/2000/svg" xmlns:xlink="http://www.w3.org/1999/xlink">
    <!-- Generator: Sketch 39.1 (31720) - http://www.bohemiancoding.com/sketch -->
    <title>logo-beaconcontrol</title>
    <desc>Created with Sketch.</desc>
    <defs></defs>
    <g id="Page-1" stroke="none" stroke-width="1" fill="none" fill-rule="evenodd">
        <g id="logo-beaconcontrol">
            <g id="Welcome">
                <g id="Artboard-8">
                    <g id="Group">
                        <path d="M22.9032503,35.3912639 C16.2808966,35.3912639 10.9122545,30.0231037 10.9122545,23.4007501 C10.9122545,16.7783964 16.2808966,11.4097543 22.9032503,11.4097543 C29.5256039,11.4097543 34.8942461,16.7783964 34.8942461,23.4007501 C34.8942461,30.0231037 29.5256039,35.3912639 22.9032503,35.3912639 M22.9032503,0.93661211 C10.4967607,0.93661211 0.43911232,10.9942605 0.43911232,23.4007501 C0.43911232,35.8072397 10.4967607,45.864888 22.9032503,45.864888 C35.3097399,45.864888 45.3673882,35.8072397 45.3673882,23.4007501 C45.3673882,10.9942605 35.3097399,0.93661211 22.9032503,0.93661211" id="Fill-11" fill="#D3ECF9"></path>
                        <path d="M22.9032503,11.4097543 C16.2808966,11.4097543 10.9122545,16.7783964 10.9122545,23.4007501 C10.9122545,30.0231037 16.2808966,35.3912639 22.9032503,35.3912639 C29.5256039,35.3912639 34.8942461,30.0231037 34.8942461,23.4007501 C34.8942461,16.7783964 29.5256039,11.4097543 22.9032503,11.4097543" id="Fill-12" fill="#85C9ED"></path>
                        <path d="M27.2577406,23.4007501 C27.2577406,25.8055046 25.3084868,27.7552404 22.9032503,27.7552404 C20.4980138,27.7552404 18.5482779,25.8055046 18.5482779,23.4007501 C18.5482779,20.9955135 20.4980138,19.0457777 22.9032503,19.0457777 C25.3084868,19.0457777 27.2577406,20.9955135 27.2577406,23.4007501" id="Fill-13" fill="#077FBA"></path>
                        <text id="PULSE" font-family="OpenSans-Bold, Open Sans" font-size="24" font-weight="bold" letter-spacing="1.84615386" fill="#077FBA">
                            <tspan x="54" y="32">PULSE</tspan>
                        </text>
                    </g>
                </g>
            </g>
        </g>
    </g>
</svg>